<svg version="1.0" xmlns="http://www.w3.org/2000/svg"
 width="64.000000pt" height="64.000000pt" viewBox="0 0 64.000000 64.000000"
 preserveAspectRatio="xMidYMid meet">

<g transform="translate(0.000000,64.000000) scale(0.100000,-0.100000)"
fill="#000000" stroke="none">
<path d="M10 585 c0 -25 5 -45 10 -45 6 0 10 12 10 27 0 27 1 26 50 -22 27
-27 53 -46 57 -42 4 4 -15 30 -42 57 -48 49 -49 50 -22 50 15 0 27 5 27 10 0
6 -20 10 -45 10 l-45 0 0 -45z"/>
<path d="M540 620 c0 -5 12 -10 27 -10 27 0 26 -1 -22 -50 -27 -27 -46 -53
-42 -57 4 -4 30 15 57 42 49 48 50 49 50 22 0 -15 5 -27 10 -27 6 0 10 20 10
45 l0 45 -45 0 c-25 0 -45 -4 -45 -10z"/>
<path d="M239 546 c-157 -56 -209 -250 -101 -376 124 -145 355 -97 407 85 54
186 -125 356 -306 291z m180 -32 c134 -67 159 -237 51 -344 -107 -108 -277
-83 -344 51 -97 196 97 390 293 293z"/>
<path d="M225 477 c-54 -30 -85 -87 -85 -155 0 -59 15 -94 57 -134 52 -49 122
-61 190 -33 50 21 72 42 94 90 42 92 7 194 -83 241 -42 22 -126 18 -173 -9z
m173 -14 c19 -9 43 -34 59 -60 56 -97 -1 -222 -109 -239 -59 -10 -105 4 -143
41 -86 87 -55 229 60 270 43 15 81 12 133 -12z"/>
<path d="M382 427 c14 -12 36 -33 47 -47 16 -20 20 -21 21 -8 0 21 -57 78 -78
78 -13 -1 -11 -6 10 -23z"/>
<path d="M310 407 c0 -7 -10 -17 -22 -22 -49 -21 -25 -75 32 -75 32 0 41 -7
33 -26 -6 -17 -70 -19 -76 -1 -2 6 -8 9 -12 5 -10 -10 13 -38 31 -38 8 0 14
-7 14 -15 0 -8 5 -15 10 -15 6 0 10 6 10 14 0 8 9 17 19 21 50 15 30 72 -27
77 -51 4 -51 32 1 36 22 2 37 -1 37 -8 0 -6 4 -9 10 -5 15 9 0 35 -21 35 -10
0 -19 7 -19 15 0 8 -4 15 -10 15 -5 0 -10 -6 -10 -13z"/>
<path d="M440 331 c0 -6 5 -13 10 -16 6 -3 10 1 10 9 0 9 -4 16 -10 16 -5 0
-10 -4 -10 -9z"/>
<path d="M77 93 c-46 -47 -47 -47 -47 -20 0 15 -4 27 -10 27 -5 0 -10 -20 -10
-45 l0 -45 45 0 c25 0 45 5 45 10 0 6 -12 10 -27 10 -27 0 -27 1 20 48 26 26
47 51 47 55 0 16 -18 5 -63 -40z"/>
<path d="M500 133 c0 -4 21 -29 47 -55 47 -47 47 -48 20 -48 -15 0 -27 -4 -27
-10 0 -5 20 -10 45 -10 l45 0 0 45 c0 25 -4 45 -10 45 -5 0 -10 -12 -10 -27 0
-27 -1 -27 -48 20 -46 45 -62 55 -62 40z"/>
</g>
</svg>
